<?xml version="1.0" standalone="no"?>
<!DOCTYPE svg PUBLIC "-//W3C//DTD SVG 20010904//EN"
 "http://www.w3.org/TR/2001/REC-SVG-20010904/DTD/svg10.dtd">
<svg version="1.0" xmlns="http://www.w3.org/2000/svg"
 width="378.000000pt" height="363.000000pt" viewBox="0 0 378.000000 363.000000"
 preserveAspectRatio="xMidYMid meet">

<g transform="translate(0.000000,363.000000) scale(0.100000,-0.100000)"
fill="#000000" stroke="none">
<path d="M1725 3603 c-57 -14 -110 -80 -121 -150 -5 -33 -1 -53 19 -97 21 -46
33 -59 72 -78 l45 -22 -2 -311 -3 -310 -155 0 -155 0 -3 228 -2 228 -25 11
c-21 9 -28 8 -45 -7 -19 -17 -20 -31 -20 -242 l0 -223 -66 0 c-75 0 -134 -23
-175 -67 -42 -44 -53 -73 -58 -153 l-6 -75 -309 0 -310 0 -20 40 c-12 21 -40
53 -64 69 -145 102 -335 -72 -253 -232 44 -87 140 -124 224 -88 38 16 92 71
102 104 l6 22 312 -2 312 -3 0 -155 0 -155 -230 -5 -230 -5 0 -35 0 -35 230
-5 230 -5 3 -157 3 -158 -315 0 -314 0 -12 30 c-7 16 -29 45 -50 64 -112 101
-290 15 -290 -139 0 -166 206 -242 313 -115 14 16 29 39 32 50 6 20 13 20 318
18 l312 -3 3 -152 3 -153 -224 0 c-234 0 -247 -2 -247 -45 0 -43 13 -45 247
-45 l223 0 0 -60 c0 -72 19 -123 63 -168 47 -50 64 -56 152 -62 l80 -5 3 -195
2 -195 -37 -20 c-20 -11 -50 -39 -67 -62 -40 -57 -41 -134 -2 -193 73 -110
249 -106 314 8 48 86 13 202 -74 247 l-39 21 0 194 0 195 135 3 c74 1 145 0
158 -3 l22 -5 0 -338 c0 -250 3 -341 12 -350 16 -16 55 -15 65 0 4 7 10 166
13 353 l5 340 130 3 c194 4 175 26 175 -198 l0 -190 -39 -24 c-22 -14 -52 -42
-68 -62 -24 -32 -28 -47 -28 -98 1 -71 18 -104 79 -147 32 -24 49 -29 95 -29
124 0 209 98 187 215 -8 42 -63 107 -106 125 l-30 13 2 196 3 196 150 0 150 0
5 -340 c3 -187 9 -346 13 -352 10 -16 49 -17 65 -1 9 9 12 99 12 343 0 244 3
334 12 343 7 7 41 12 80 12 81 0 109 12 165 73 43 46 51 70 55 162 l3 50 191
3 190 2 32 -49 c38 -57 85 -83 152 -83 149 0 231 176 135 290 -47 56 -133 77
-202 51 -35 -13 -80 -55 -99 -92 l-15 -27 -192 2 -192 3 0 150 0 150 345 5
c190 3 346 7 348 8 8 7 0 61 -11 71 -9 7 -122 12 -348 13 l-334 3 0 155 0 155
193 3 193 2 14 -32 c25 -61 99 -108 167 -108 136 1 222 163 146 277 -30 46
-96 83 -146 83 -69 0 -142 -47 -167 -107 l-14 -33 -183 0 c-101 0 -189 4 -196
8 -9 7 -12 45 -10 158 l3 149 345 5 345 5 0 35 0 35 -345 5 c-190 3 -346 7
-347 8 -2 1 -3 31 -3 67 0 140 -91 225 -241 225 -52 0 -59 2 -64 23 -3 12 -4
152 -3 311 l3 290 44 26 c105 61 120 203 29 287 -74 69 -211 52 -267 -34 -60
-93 -24 -226 72 -262 l27 -11 0 -315 0 -315 -155 0 -155 0 0 219 c0 199 -2
221 -19 242 -16 20 -22 22 -45 11 l-26 -11 -2 -228 -3 -228 -152 -3 -153 -3 0
313 0 313 45 27 c119 72 110 246 -16 310 -32 17 -91 22 -134 11z m120 -108
c25 -24 34 -86 17 -111 -15 -22 -58 -44 -85 -44 -37 0 -87 49 -87 85 0 31 24
81 42 88 36 15 90 6 113 -18z m810 0 c56 -55 13 -155 -66 -155 -28 0 -75 26
-83 45 -12 33 -6 83 15 109 29 36 99 37 134 1z m119 -969 c18 -7 42 -26 54
-41 l22 -28 0 -769 c0 -697 -2 -771 -16 -794 -37 -56 -7 -54 -860 -54 l-786 0
-34 34 -34 34 2 787 3 786 25 20 c14 11 34 24 45 29 11 5 361 9 783 9 627 1
769 -1 796 -13z m-2498 -154 c75 -60 40 -172 -53 -172 -80 0 -113 101 -54 161
34 33 75 38 107 11z m3293 -418 c64 -54 23 -154 -63 -154 -52 0 -86 35 -86 90
0 82 85 118 149 64z m-3282 -398 c23 -20 28 -32 28 -70 0 -55 -24 -84 -78 -93
-31 -5 -40 -1 -67 25 -86 86 25 217 117 138z m3296 -417 c27 -34 22 -85 -12
-120 -37 -37 -79 -38 -120 -3 -26 21 -31 33 -31 68 0 46 16 68 60 84 32 12 80
-2 103 -29z m-2168 -883 c92 -39 64 -166 -37 -166 -96 0 -123 134 -34 170 29
12 32 12 71 -4z m838 -26 c15 -17 27 -39 27 -50 0 -78 -95 -119 -156 -66 -41
35 -39 89 5 128 41 37 82 33 124 -12z"/>
<path d="M1314 2294 c-21 -142 22 -286 111 -374 44 -44 55 -61 55 -87 0 -25
-4 -33 -17 -33 -21 0 -155 136 -178 181 -46 89 -14 -57 35 -160 39 -82 76
-136 131 -196 23 -25 32 -51 49 -140 43 -222 136 -342 307 -399 135 -45 501
-60 766 -33 65 7 123 10 128 6 6 -3 23 -33 39 -65 l28 -59 21 71 c29 96 27
128 -9 185 -43 66 -170 184 -270 251 -81 54 -254 146 -370 197 -368 163 -545
275 -665 421 -59 72 -123 192 -132 246 -8 48 -21 42 -29 -12z m362 -586 c38
-23 101 -57 140 -75 l72 -34 -5 -62 c-5 -63 -5 -63 31 -90 39 -30 46 -51 20
-61 -15 -6 -15 -8 1 -26 76 -84 248 -77 321 13 l28 35 39 -19 c80 -42 288
-201 276 -213 -3 -3 -88 -11 -189 -18 -143 -9 -214 -9 -324 0 -296 26 -391 81
-450 259 -33 103 -59 333 -37 333 5 0 40 -19 77 -42z"/>
</g>
</svg>
